<svg xmlns="http://www.w3.org/2000/svg" width="23" height="24" viewBox="0 0 23 24">
    <g fill="none" fill-rule="evenodd">
        <g fill="#6C5D84">
            <g>
                <path d="M16.309 22.204c1.308 0 2.542-.522 3.475-1.47.934-.948 1.448-2.202 1.448-3.53V6.796c0-1.328-.514-2.582-1.448-3.53-.933-.948-2.167-1.47-3.475-1.47H6.69c-1.307 0-2.542.522-3.475 1.47-.934.948-1.448 2.202-1.448 3.53v10.408c0 1.328.514 2.582 1.448 3.53.933.948 2.168 1.47 3.475 1.47h9.618zm0 1.796H6.69C3.011 24 0 20.942 0 17.204V6.796C0 3.058 3.011 0 6.691 0h9.618C19.989 0 23 3.058 23 6.796v10.408C23 20.942 19.989 24 16.309 24z" transform="translate(-593 -3632) translate(593 3632)"/>
                <path d="M11.5 7.718c-2.29 0-4.146 1.891-4.146 4.225 0 2.333 1.856 4.225 4.146 4.225s4.146-1.892 4.146-4.225c0-2.334-1.856-4.225-4.146-4.225m6.362 4.22c0 3.563-2.835 6.452-6.331 6.452-3.497 0-6.332-2.889-6.332-6.452 0-3.564 2.835-6.452 6.332-6.452 3.496 0 6.33 2.888 6.33 6.452M19.452 5.392c0 .844-.67 1.527-1.499 1.527-.827 0-1.498-.683-1.498-1.527 0-.843.67-1.527 1.498-1.527s1.5.684 1.5 1.527" transform="translate(-593 -3632) translate(593 3632)"/>
            </g>
        </g>
    </g>
</svg>
