<svg xmlns="http://www.w3.org/2000/svg" width="71" height="71" viewBox="0 0 71 71">
    <g fill="none" fill-rule="evenodd">
        <g>
            <g transform="translate(-1336 -2200) translate(1336 2200)">
                <circle cx="35.5" cy="35.5" r="35.5" fill="#FBF7EF"/>
                <g fill="#6C5D84" fill-rule="nonzero">
                    <g>
                        <path d="M20 8.997c-.012-.321-.141-.694-.353-.928L12.69.42c-.472-.438-1.375-.62-1.902-.113-.52.5-.503 1.468.014 1.969l4.891 5.373H1.304C.584 7.648 0 8.252 0 8.998c0 .745.584 1.35 1.304 1.35h14.389l-4.891 5.372c-.445.463-.528 1.465-.014 1.97.513.504 1.45.342 1.902-.113l6.957-7.651c.238-.262.353-.57.353-.928z" transform="translate(25 27)"/>
                    </g>
                </g>
            </g>
        </g>
    </g>
</svg>
