<svg xmlns="http://www.w3.org/2000/svg" xmlns:xlink="http://www.w3.org/1999/xlink" width="253" height="23" viewBox="0 0 253 23">
    <defs>
        <path id="a57aby6mea" d="M5.344 0c-.66 0-1.044.241-1.3.817L.5 8.793c-.166.371-.328.744-.5 1.134.943 0 1.859.002 2.775-.006.048 0 .119-.072.14-.125.157-.39.31-.781.45-1.177.047-.132.108-.18.262-.179 1.016.008 2.033.011 3.05-.001.203-.003.261.064.294.236.078.415.178.826.27 1.247h2.535V9.85c-.082-.335-.17-.669-.244-1.005C8.949 6.218 8.369 3.59 7.788.964 7.717.644 7.643.324 7.569 0H5.344m.279 2.758l.033.006.803 3.632H4.225l1.398-3.638"/>
        <path id="gwfa47eruc" d="M5.083 0c-.052.012-.104.03-.157.035-.957.11-1.856.37-2.612.956-.87.675-1.29 1.542-1.168 2.61.081.714.51 1.251 1.103 1.654.462.314.981.553 1.47.834.312.18.642.345.917.569.417.34.374.886-.085 1.176-.212.134-.466.237-.715.281-.959.17-1.883.014-2.779-.326-.187-.072-.37-.152-.566-.233L0 9.724c.034.02.054.036.076.044.075.03.15.059.227.083.885.274 1.787.412 2.705.412h.006c.269 0 .539-.012.81-.036.86-.075 1.684-.279 2.413-.735 1.158-.725 1.668-1.75 1.496-3.05-.097-.736-.56-1.28-1.194-1.676-.54-.336-1.122-.61-1.676-.924-.244-.139-.488-.289-.694-.472-.299-.265-.295-.63.018-.882.182-.147.417-.264.648-.325.57-.15 1.153-.105 1.723.014.416.087.821.222 1.245.339L8.278.423C7.956.336 7.66.245 7.358.179 7.028.107 6.69.059 6.356 0H5.083z"/>
        <path id="hhxhl8qnqe" d="M9.837.155c-.89 2.137-1.786 4.272-2.68 6.408-.018.04-.044.077-.081.144-.024-.112-.042-.19-.058-.27-.361-1.807-.72-3.614-1.085-5.42C5.803.377 5.31.003 4.627.002H.304c-.3 0-.3 0-.304.298l.105.025c.807.18 1.597.403 2.36.72.475.197.728.518.855.99.69 2.567 1.4 5.13 2.098 7.696.04.148.097.206.271.203.823-.01 1.647-.008 2.47-.001.15 0 .226-.036.288-.176 1.3-2.938 2.606-5.872 3.91-8.808.137-.307.272-.616.414-.939-.076-.003-.13-.008-.184-.008h-.71c-.6.001-1.199.002-1.798-.003h-.005c-.13 0-.19.04-.237.155"/>
        <path id="m81fsn5qig" d="M2.25 0L0 9.917h.224c.749 0 1.497-.008 2.246.005.208.004.28-.056.322-.246.612-2.73 1.233-5.458 1.851-8.186L4.98 0H2.25z"/>
        <path id="na0lf9ad4i" d="M0 0L0.5 0 0.5 0.5 0 0.5z"/>
        <path id="0lfjdeu9ak" d="M0 0L14.104 0 14.104 17.199 0 17.199z"/>
        <path id="dg7nyxdqzm" d="M0 0L14.104 0 14.104 17.199 0 17.199z"/>
        <path id="6moi49080o" d="M0 0L46 0 46 22 0 22z"/>
        <path id="w3e17320nq" d="M0 22L46 22 46 0 0 0z"/>
    </defs>
    <g fill="none" fill-rule="evenodd" opacity=".64">
        <g>
            <g>
                <g>
                    <g opacity=".794">
                        <g>
                            <g opacity=".742">
                                <g>
                                    <path fill="#030100" d="M35.052 3.673c-.218 1.407-1.311 1.407-2.368 1.407h-.602l.422-2.628c.026-.159.165-.276.328-.276h.276c.72 0 1.4 0 1.75.403.21.242.273.6.194 1.094M34.592 0h-3.988c-.272 0-.505.195-.547.46l-1.612 10.056c-.032.198.124.378.328.378h2.046c.19 0 .353-.137.383-.322l.457-2.851c.043-.265.275-.46.547-.46h1.262c2.627 0 4.142-1.25 4.539-3.728.178-1.084.007-1.935-.51-2.531C36.932.347 35.927 0 34.593 0" transform="translate(-958 -4282) translate(958 4282) translate(0 6.466)"/>
                                    <path fill="#070101" d="M6.612 3.673C6.394 5.08 5.3 5.08 4.243 5.08h-.601l.421-2.628c.026-.159.165-.276.329-.276h.276c.72 0 1.4 0 1.75.403.21.242.273.6.194 1.094M6.152 0H2.163c-.273 0-.505.195-.548.46L.004 10.516c-.032.198.124.378.328.378h1.904c.273 0 .505-.196.548-.46l.435-2.713c.042-.265.274-.46.547-.46h1.262c2.626 0 4.142-1.25 4.538-3.728.179-1.084.007-1.935-.508-2.531C8.49.347 7.485 0 6.15 0M15.409 7.283c-.185 1.073-1.05 1.793-2.155 1.793-.554 0-.998-.175-1.283-.507-.282-.329-.388-.797-.299-1.32.172-1.062 1.052-1.806 2.14-1.806.542 0 .982.177 1.273.512.292.337.407.809.324 1.328m2.66-3.655H16.16c-.163 0-.303.117-.328.276l-.084.525-.134-.19c-.413-.591-1.335-.788-2.255-.788-2.11 0-3.911 1.572-4.262 3.777-.183 1.1.077 2.151.71 2.885.584.674 1.415.955 2.406.955 1.7 0 2.643-1.074 2.643-1.074l-.085.522c-.032.198.124.378.328.378h1.72c.272 0 .504-.195.547-.46l1.032-6.429c.032-.198-.124-.377-.328-.377" transform="translate(-958 -4282) translate(958 4282) translate(0 6.466)"/>
                                    <path fill="#030100" d="M43.85 7.283c-.185 1.073-1.051 1.793-2.156 1.793-.554 0-.997-.175-1.282-.507-.283-.329-.389-.797-.3-1.32.173-1.062 1.053-1.806 2.14-1.806.543 0 .983.177 1.273.512.293.337.408.809.324 1.328m2.661-3.655H44.6c-.163 0-.302.117-.328.276l-.083.525-.134-.19c-.414-.591-1.335-.788-2.255-.788-2.11 0-3.912 1.572-4.263 3.777-.182 1.1.077 2.151.711 2.885.583.674 1.414.955 2.405.955 1.7 0 2.643-1.074 2.643-1.074l-.085.522c-.032.198.124.378.328.378h1.72c.273 0 .505-.195.547-.46l1.032-6.429c.032-.198-.124-.377-.328-.377" transform="translate(-958 -4282) translate(958 4282) translate(0 6.466)"/>
                                    <path fill="#070101" d="M28.24 3.628h-1.92c-.183 0-.355.09-.458.238l-2.648 3.835-1.122-3.685c-.07-.23-.286-.388-.53-.388h-1.887c-.228 0-.388.22-.315.432l2.114 6.1-1.988 2.759c-.156.216.001.516.271.516h1.917c.182 0 .352-.088.456-.235l6.382-9.06c.153-.216-.005-.512-.273-.512" transform="translate(-958 -4282) translate(958 4282) translate(0 6.466)"/>
                                    <path fill="#030100" d="M48.76.276l-1.636 10.24c-.032.198.124.378.328.378h1.646c.273 0 .505-.195.548-.46L51.259.378C51.291.18 51.135 0 50.931 0h-1.842c-.164 0-.303.117-.328.276" transform="translate(-958 -4282) translate(958 4282) translate(0 6.466)"/>
                                </g>
                            </g>
                            <g opacity=".805">
                                <g>
                                    <g transform="translate(-958 -4282) translate(958 4282) translate(66.72 7.341) translate(23.894 .177)">
                                        <mask id="w1i207flvb" fill="#fff">
                                            <use xlink:href="#a57aby6mea"/>
                                        </mask>
                                        <path fill="#000" d="M5.344 0c-.66 0-1.044.241-1.3.817L.5 8.793c-.166.371-.328.744-.5 1.134.943 0 1.859.002 2.775-.006.048 0 .119-.072.14-.125.157-.39.31-.781.45-1.177.047-.132.108-.18.262-.179 1.016.008 2.033.011 3.05-.001.203-.003.261.064.294.236.078.415.178.826.27 1.247h2.535V9.85c-.082-.335-.17-.669-.244-1.005C8.949 6.218 8.369 3.59 7.788.964 7.717.644 7.643.324 7.569 0H5.344m.279 2.758l.033.006.803 3.632H4.225l1.398-3.638" mask="url(#w1i207flvb)"/>
                                    </g>
                                    <g transform="translate(-958 -4282) translate(958 4282) translate(66.72 7.341) translate(16.272)">
                                        <mask id="01hvwqwyid" fill="#fff">
                                            <use xlink:href="#gwfa47eruc"/>
                                        </mask>
                                        <path fill="#000" d="M5.083 0c-.052.012-.104.03-.157.035-.957.11-1.856.37-2.612.956-.87.675-1.29 1.542-1.168 2.61.081.714.51 1.251 1.103 1.654.462.314.981.553 1.47.834.312.18.642.345.917.569.417.34.374.886-.085 1.176-.212.134-.466.237-.715.281-.959.17-1.883.014-2.779-.326-.187-.072-.37-.152-.566-.233L0 9.724c.034.02.054.036.076.044.075.03.15.059.227.083.885.274 1.787.412 2.705.412h.006c.269 0 .539-.012.81-.036.86-.075 1.684-.279 2.413-.735 1.158-.725 1.668-1.75 1.496-3.05-.097-.736-.56-1.28-1.194-1.676-.54-.336-1.122-.61-1.676-.924-.244-.139-.488-.289-.694-.472-.299-.265-.295-.63.018-.882.182-.147.417-.264.648-.325.57-.15 1.153-.105 1.723.014.416.087.821.222 1.245.339L8.278.423C7.956.336 7.66.245 7.358.179 7.028.107 6.69.059 6.356 0H5.083z" mask="url(#01hvwqwyid)"/>
                                    </g>
                                    <g transform="translate(-958 -4282) translate(958 4282) translate(66.72 7.341) translate(0 .173)">
                                        <mask id="5km3bb74tf" fill="#fff">
                                            <use xlink:href="#hhxhl8qnqe"/>
                                        </mask>
                                        <path fill="#000" d="M9.837.155c-.89 2.137-1.786 4.272-2.68 6.408-.018.04-.044.077-.081.144-.024-.112-.042-.19-.058-.27-.361-1.807-.72-3.614-1.085-5.42C5.803.377 5.31.003 4.627.002H.304c-.3 0-.3 0-.304.298l.105.025c.807.18 1.597.403 2.36.72.475.197.728.518.855.99.69 2.567 1.4 5.13 2.098 7.696.04.148.097.206.271.203.823-.01 1.647-.008 2.47-.001.15 0 .226-.036.288-.176 1.3-2.938 2.606-5.872 3.91-8.808.137-.307.272-.616.414-.939-.076-.003-.13-.008-.184-.008h-.71c-.6.001-1.199.002-1.798-.003h-.005c-.13 0-.19.04-.237.155" mask="url(#5km3bb74tf)"/>
                                    </g>
                                    <g transform="translate(-958 -4282) translate(958 4282) translate(66.72 7.341) translate(11.68 .187)">
                                        <mask id="dlpqllfcbh" fill="#fff">
                                            <use xlink:href="#m81fsn5qig"/>
                                        </mask>
                                        <path fill="#000" d="M2.25 0L0 9.917h.224c.749 0 1.497-.008 2.246.005.208.004.28-.056.322-.246.612-2.73 1.233-5.458 1.851-8.186L4.98 0H2.25z" mask="url(#dlpqllfcbh)"/>
                                    </g>
                                </g>
                            </g>
                            <g>
                                <path fill="#1D1D1B" d="M4.839 19.46c-.081-.08-.177-.142-.289-.187-.11-.044-.233-.067-.365-.067-.07 0-.143.006-.218.018-.075.012-.15.033-.222.063-.072.03-.14.072-.206.125-.066.054-.122.12-.17.202-.078-.127-.184-.227-.317-.3-.133-.071-.285-.108-.456-.108-.057 0-.117.006-.178.016-.062.01-.123.028-.184.053-.06.026-.118.06-.173.104-.056.044-.106.099-.15.166v-.28h-.486v2.283h.49v-1.265c0-.097.015-.183.047-.258.03-.076.072-.139.124-.19.052-.05.113-.09.183-.115.07-.027.145-.04.225-.04.164 0 .292.052.383.155.091.103.137.251.137.443v1.27h.49v-1.265c0-.097.015-.183.047-.258.03-.076.072-.139.124-.19.052-.05.114-.09.184-.115.07-.027.144-.04.224-.04.164 0 .292.052.383.155.091.103.137.251.137.443v1.27h.49v-1.434c0-.133-.022-.256-.067-.367-.044-.111-.107-.207-.187-.287M7.403 20.697c-.033.09-.08.166-.142.231-.06.066-.134.117-.22.154-.084.037-.18.056-.284.056-.109 0-.207-.02-.293-.058-.086-.04-.158-.092-.218-.157-.06-.066-.105-.144-.137-.233-.032-.089-.049-.183-.049-.283 0-.1.017-.195.049-.284.032-.089.078-.166.137-.232.06-.066.132-.118.218-.157.086-.039.184-.058.293-.058.105 0 .2.018.285.056.085.037.158.088.22.153.06.065.108.142.141.231.034.09.051.186.051.29 0 .106-.017.202-.05.291zm.02-1.155c-.08-.101-.18-.183-.3-.244-.118-.061-.26-.092-.426-.092-.162 0-.313.03-.453.09s-.262.142-.367.249c-.104.106-.186.233-.246.38-.06.146-.089.307-.089.482s.03.335.09.482c.059.147.14.274.245.38.105.106.227.19.367.249.14.06.29.09.453.09.166 0 .308-.03.427-.091.119-.06.218-.142.299-.243v.274h.504v-2.282h-.504v.276zM10.243 20.403c-.142-.108-.339-.181-.59-.218l-.24-.035c-.053-.008-.102-.017-.15-.028-.046-.01-.086-.024-.12-.042-.033-.017-.06-.04-.08-.066-.02-.027-.03-.06-.03-.1 0-.081.038-.147.114-.197.076-.05.184-.075.322-.075.072 0 .143.007.213.02.07.012.137.028.2.047.062.019.119.04.17.063.052.023.095.045.13.066l.218-.389c-.12-.076-.262-.135-.422-.177-.161-.042-.332-.063-.514-.063-.148 0-.28.017-.398.051-.117.034-.217.083-.3.145-.083.063-.146.14-.19.23-.045.09-.067.192-.067.305 0 .184.067.333.2.447.132.113.327.187.584.222l.241.031c.138.02.24.05.304.092.064.042.096.096.096.16 0 .087-.044.154-.132.204-.089.05-.22.075-.393.075-.095 0-.18-.006-.255-.019-.074-.012-.143-.03-.205-.05-.062-.022-.117-.047-.166-.075-.05-.027-.094-.057-.136-.089l-.234.374c.083.062.171.112.263.15.091.038.181.068.27.09.088.02.172.035.25.042.08.007.148.011.208.011.165 0 .314-.018.445-.055.13-.036.24-.088.33-.154.09-.065.157-.144.205-.235.047-.092.071-.192.071-.302 0-.195-.07-.347-.212-.456M13.552 20.212c.012-.083.035-.159.067-.228s.074-.129.124-.179c.051-.05.111-.088.181-.115.07-.027.15-.04.24-.04.16 0 .292.049.393.147.101.099.166.237.193.415h-1.198zm1.409-.673c-.096-.106-.21-.188-.345-.246-.134-.058-.282-.087-.442-.087-.17 0-.326.03-.467.087-.14.058-.261.14-.363.246-.101.105-.18.232-.236.38-.056.147-.084.31-.084.488 0 .18.029.345.087.493.057.148.138.274.243.379.105.104.229.185.374.243.144.057.304.085.477.085.175 0 .342-.023.5-.071.159-.048.309-.131.45-.25l-.25-.355c-.097.076-.204.135-.32.177-.117.042-.233.063-.349.063-.082 0-.16-.01-.236-.033-.075-.022-.144-.057-.205-.104-.06-.046-.113-.106-.157-.18-.043-.072-.073-.16-.089-.264h1.707c.003-.028.006-.059.007-.09l.003-.095c0-.178-.027-.34-.08-.488-.055-.147-.13-.273-.225-.378zM21.636 20.697c-.033.09-.08.166-.142.231-.061.066-.134.117-.22.154-.085.037-.18.056-.284.056-.11 0-.207-.02-.293-.058-.086-.04-.159-.092-.218-.157-.06-.066-.105-.144-.137-.233-.033-.089-.049-.183-.049-.283 0-.1.016-.195.049-.284.032-.089.078-.166.137-.232.06-.066.132-.118.218-.157.086-.039.184-.058.293-.058.105 0 .2.018.285.056.085.037.158.088.22.153.06.065.108.142.141.231.034.09.05.186.05.29 0 .106-.016.202-.05.291zm.02-1.155c-.08-.101-.18-.183-.3-.244-.118-.061-.26-.092-.426-.092-.163 0-.314.03-.453.09-.14.06-.262.142-.367.249-.104.106-.186.233-.246.38-.06.146-.089.307-.089.482s.03.335.09.482c.059.147.14.274.245.38.105.106.227.19.367.249.14.06.29.09.453.09.165 0 .308-.03.427-.091.119-.06.218-.142.299-.243v.274h.504v-2.282h-.504v.276zM12.404 21.093c-.082.03-.162.045-.24.045-.052 0-.1-.008-.144-.024-.044-.016-.083-.04-.116-.075-.032-.034-.059-.078-.078-.132-.02-.054-.029-.12-.029-.195v-.994h.81v-.452h-.81v-.69h-.506v.69h-.46v.452h.46v1.003c0 .304.073.527.218.67.146.145.35.216.611.216.146 0 .278-.022.394-.066.077-.03.149-.063.216-.1l-.172-.417c-.05.025-.1.049-.154.069M16.953 19.206c-.142 0-.27.026-.384.077-.114.05-.21.173-.286.282v-.3h-.458v2.283h.462v-1.255c0-.097.014-.184.041-.26.028-.076.066-.14.114-.193.048-.052.106-.092.173-.12.068-.026.142-.04.222-.04.061 0 .127.008.198.022.036.007.07.016.101.027l.15-.477c-.041-.012-.082-.023-.125-.03-.062-.01-.131-.016-.208-.016M23.958 19.206c-.142 0-.27.026-.384.077-.114.05-.21.173-.287.282v-.3h-.457v2.283h.462v-1.255c0-.097.014-.184.041-.26.027-.076.065-.14.114-.193.048-.052.106-.092.173-.12.068-.026.142-.04.222-.04.061 0 .127.008.198.022.036.007.07.016.1.027l.15-.477c-.04-.012-.082-.023-.124-.03-.062-.01-.131-.016-.208-.016M26.292 20.697c-.034.09-.081.166-.142.231-.061.066-.135.117-.22.154-.085.037-.18.056-.284.056-.11 0-.207-.02-.293-.058-.086-.04-.159-.092-.218-.157-.06-.066-.106-.144-.138-.233-.032-.089-.048-.183-.048-.283 0-.1.016-.195.048-.284.032-.089.078-.166.138-.232.06-.066.132-.118.218-.157.086-.039.183-.058.293-.058.104 0 .2.018.284.056.085.037.159.088.22.153.06.065.108.142.142.231.034.09.05.186.05.29 0 .106-.016.202-.05.291zm.02-2.359v1.204c-.081-.101-.18-.183-.3-.244-.119-.061-.26-.092-.426-.092-.163 0-.314.03-.454.09s-.262.142-.366.249c-.105.106-.187.233-.246.38-.06.146-.09.307-.09.482s.03.335.09.482c.06.147.141.274.246.38.104.106.226.19.366.249.14.06.291.09.454.09.165 0 .307-.03.426-.091.12-.06.219-.142.3-.243v.274h.503v-3.21h-.504zM18.159 19.88c.064-.065.14-.115.229-.15.088-.037.184-.054.287-.054.113 0 .218.017.315.053.095.035.176.083.245.144l.243-.398c-.091-.072-.194-.131-.308-.177-.152-.061-.317-.092-.495-.092-.179 0-.344.031-.496.092-.152.061-.283.145-.393.253-.11.107-.196.233-.259.38-.063.146-.094.304-.094.476 0 .171.031.33.094.476.063.146.15.273.26.38.11.107.24.192.392.253.152.06.317.091.496.091.178 0 .343-.03.495-.091.114-.046.217-.105.308-.177l-.243-.399c-.07.062-.15.11-.245.145-.097.035-.202.053-.315.053-.103 0-.199-.018-.287-.053-.089-.036-.165-.086-.23-.15-.063-.065-.114-.142-.151-.232-.037-.09-.055-.188-.055-.296 0-.108.018-.207.055-.297.037-.09.088-.166.152-.23" transform="translate(-958 -4282) translate(958 4282) translate(163.043)"/>
                                <g transform="translate(-958 -4282) translate(958 4282) translate(163.043) translate(27.633 21.213)">
                                    <mask id="lvwylbtkej" fill="#fff">
                                        <use xlink:href="#na0lf9ad4i"/>
                                    </mask>
                                    <path fill="#1D1D1B" d="M.65.6v.126h.134C.812.726.834.72.85.712.864.702.87.686.87.664.87.642.864.625.849.615.834.605.812.6.784.6H.65zM.786.432c.088 0 .155.021.2.063.046.042.069.098.069.169 0 .055-.016.1-.049.137C.974.837.927.86.865.873l.199.247H.849L.67.88H.65v.24H.47V.432h.317zm-.041.906c.071 0 .139-.015.202-.044.063-.03.119-.07.165-.12.047-.051.083-.11.11-.178.027-.069.04-.142.04-.22 0-.077-.013-.15-.04-.219C1.196.49 1.16.43 1.113.38 1.067.33 1.01.29.948.26.885.23.818.216.746.216.672.216.603.231.539.26.475.29.42.33.373.38.326.43.288.488.262.556.235.626.222.7.222.776c0 .078.013.151.04.22.026.068.064.127.11.178.048.05.103.09.167.12.064.029.133.044.207.044zM.746 0c.103 0 .199.02.29.061.09.041.167.097.234.167.068.07.12.152.159.246.039.094.057.194.057.302 0 .106-.018.206-.057.3-.039.095-.091.178-.159.249-.067.07-.145.126-.235.167-.09.041-.186.062-.29.062-.104 0-.203-.021-.293-.062-.092-.04-.17-.097-.238-.167-.067-.071-.119-.154-.157-.248C.02.982 0 .882 0 .776 0 .668.019.568.057.474.095.38.147.3.214.228.282.158.36.102.452.061.542.021.64 0 .746 0z" mask="url(#lvwylbtkej)"/>
                                </g>
                                <g transform="translate(-958 -4282) translate(958 4282) translate(163.043)">
                                    <mask id="p5ojhv3g5l" fill="#fff">
                                        <use xlink:href="#0lfjdeu9ak"/>
                                    </mask>
                                    <path fill="#000" d="M10.799 8.6c0-2.734 1.293-5.168 3.305-6.743C12.62.695 10.745 0 8.704 0 3.898 0 0 3.85 0 8.6s3.897 8.6 8.705 8.6c2.04 0 3.915-.696 5.4-1.858-2.013-1.575-3.306-4.009-3.306-6.742" mask="url(#p5ojhv3g5l)" opacity=".798"/>
                                </g>
                                <path fill="#787878" d="M10.799 8.6c0 2.733 1.293 5.167 3.305 6.742 2.013-1.575 3.306-4.009 3.306-6.742 0-2.734-1.293-5.168-3.306-6.743C12.092 3.432 10.8 5.866 10.8 8.6M28.806 14.378v-1.005l-.146.867h-.16l-.146-.864v1.002h-.151V12.93h.217l.16.927.16-.927h.217v1.448h-.151zm-1.086 0v-1.136h-.205v-.312h.562v.312h-.205v1.136h-.152z" transform="translate(-958 -4282) translate(958 4282) translate(163.043)"/>
                                <g transform="translate(-958 -4282) translate(958 4282) translate(163.043) translate(14.104)">
                                    <mask id="ceerveqzbn" fill="#fff">
                                        <use xlink:href="#dg7nyxdqzm"/>
                                    </mask>
                                    <path fill="#646464" d="M5.4 0C3.358 0 1.483.695 0 1.857 2.013 3.432 3.305 5.866 3.305 8.6c0 2.733-1.292 5.167-3.305 6.742C1.484 16.504 3.359 17.2 5.4 17.2c4.807 0 8.704-3.85 8.704-8.6C14.104 3.85 10.207 0 5.4 0" mask="url(#ceerveqzbn)"/>
                                </g>
                            </g>
                        </g>
                    </g>
                    <g>
                        <path fill="#6C6A69" d="M0 20.842L20.963 20.842 20.963 0 0 0z" transform="translate(-958 -4282) translate(958 4282) translate(121.118 1.158)"/>
                        <path fill="#FEFEFE" d="M7.594 17.544L15.883 17.562 17.184 16.118 18.496 17.556 20.963 17.556 20.963 15.449 19.417 13.793 20.963 12.151 20.963 10.088 7.594 10.076z" transform="translate(-958 -4282) translate(958 4282) translate(121.118 1.158)"/>
                        <path fill="#6C6A69" d="M8.487 16.725L8.487 10.898 13.456 10.898 13.456 12.24 10.096 12.24 10.096 13.152 13.376 13.152 13.376 14.472 10.096 14.472 10.096 15.367 13.456 15.367 13.456 16.725z" transform="translate(-958 -4282) translate(958 4282) translate(121.118 1.158)"/>
                        <path fill="#6C6A69" d="M18.926 10.898L17.241 12.745 15.56 10.898 13.432 10.898 16.182 13.808 13.432 16.725 15.502 16.725 17.195 14.86 18.905 16.725 20.963 16.725 20.963 16.643 18.271 13.808 20.963 10.944 20.963 10.898z" transform="translate(-958 -4282) translate(958 4282) translate(121.118 1.158)"/>
                        <path fill="#FEFEFE" d="M8.217 3.448L11.44 3.448 12.572 6.003 12.572 3.448 16.55 3.448 17.236 5.362 17.925 3.448 20.963 3.448 20.963 10.916 4.908 10.916z" transform="translate(-958 -4282) translate(958 4282) translate(121.118 1.158)"/>
                        <path fill="#6C6A69" d="M9.051 7.609l.78-1.854.78 1.854H9.05zm-.223-3.35L6.227 10.08H8.01l.49-1.166h2.659l.49 1.166h1.828l-2.59-5.822h-2.06z" transform="translate(-958 -4282) translate(958 4282) translate(121.118 1.158)"/>
                        <path fill="#6C6A69" d="M13.454 10.08L13.454 4.258 15.961 4.267 17.251 7.846 18.55 4.258 20.963 4.258 20.963 10.08 19.41 10.094 19.41 6.095 17.944 10.08 16.527 10.08 15.031 6.081 15.031 10.08z" transform="translate(-958 -4282) translate(958 4282) translate(121.118 1.158)"/>
                    </g>
                </g>
                <g transform="translate(-958 -4282) translate(958 4282) translate(207 1)">
                    <g>
                        <mask id="f8dce1w7up" fill="#fff">
                            <use xlink:href="#6moi49080o"/>
                        </mask>
                        <path fill="#EDAA16" d="M0 1.486C0 .67.644 0 1.432 0h43.136C45.355 0 46 .669 46 1.486v19.028C46 21.33 45.355 22 44.568 22H1.432C.644 22 0 21.33 0 20.514V1.486z" mask="url(#f8dce1w7up)"/>
                    </g>
                    <mask id="nfy11zquer" fill="#fff">
                        <use xlink:href="#w3e17320nq"/>
                    </mask>
                    <use fill="#D8D8D8" xlink:href="#w3e17320nq"/>
                    <path fill="#FEFEFE" d="M0 19.84L46 19.84 46 2.16 0 2.16z" mask="url(#nfy11zquer)"/>
                    <path fill="#919191" d="M38.984 6.752c-2.105 0-3.82 1.78-3.82 3.964 0 2.183 1.715 3.964 3.82 3.964 2.104 0 3.82-1.78 3.82-3.964s-1.716-3.964-3.82-3.964M7.496 6.752c-2.105 0-3.82 1.78-3.82 3.964 0 2.183 1.715 3.964 3.82 3.964 2.104 0 3.82-1.78 3.82-3.964S9.6 6.752 7.496 6.752" mask="url(#nfy11zquer)"/>
                    <path fill="#919191" d="M38.984 16.979c-3.325 0-6.036-2.813-6.036-6.263 0-3.45 2.711-6.263 6.036-6.263 3.324 0 6.035 2.813 6.035 6.263 0 3.45-2.71 6.263-6.035 6.263zM13.53 10.716c0 3.45-2.71 6.263-6.035 6.263S1.46 14.166 1.46 10.716c0-3.45 2.711-6.263 6.036-6.263 3.324 0 6.035 2.813 6.035 6.263zm25.153-7.453c-3.536-.085-5.2 2.269-7.612 5.171l-2.276 2.737L32.4 15.65c.859 1.376-.78 2.741-1.797 1.483l-3.332-4.126-3.248 3.907c-1.034 1.243-2.654-.146-1.777-1.51l3.525-4.253-2.31-2.859 1.486-1.91 2.349 2.929 2.025-2.444c.993-1.199 2.006-2.787 3.32-3.603H0v15.474h7.63c3.537 0 5.143-2.194 7.49-5.153l2.216-2.792-3.704-4.39c-.888-1.355.72-2.759 1.764-1.524l3.423 4.044 3.16-3.983c1.007-1.269 2.657.082 1.81 1.466l-3.43 4.337 2.374 2.803-1.495 1.837-2.362-2.764-1.97 2.491c-.967 1.222-1.945 2.78-3.24 3.628H46V3.263h-7.316z" mask="url(#nfy11zquer)"/>
                </g>
            </g>
        </g>
    </g>
</svg>
